# xmcd
#
# Track frame offsets:
#	150
#	35365
#	48444
#	97342
#	112424
#	126342
#	141644
#	155103
#	169647
#	187632
#	200191
#	218288
#	231200
#	259938
#	279525
#
# Disc length: 4144 seconds
#
# Revision: 1
# Processed by: cddbd v1.5.1PL2 Copyright (c) Steve Scherf et al.
# Submitted via: audiograbber 1.83.01
#
DISCID=ea102e0f
DTITLE=Miles Davis - That Old Black Magic, cd3
DYEAR=2005
DGENRE=Blues
TTITLE0=Ill remember april
TTITLE1=Yardbird suite
TTITLE2=What is this thing called love
TTITLE3=That old devil moon
TTITLE4=Out of nowhere
TTITLE5=When lights are low
TTITLE6=Dont explain to me baby
TTITLE7=My old flame
TTITLE8=Jeru
TTITLE9=Dont blame me
TTITLE10=You came along from out of nowhere
TTITLE11=Dont sing me the blues
TTITLE12=No blues
TTITLE13=Darn that dream
TTITLE14=The serpents tooth
EXTD=
EXTT0=
EXTT1=
EXTT2=
EXTT3=
EXTT4=
EXTT5=
EXTT6=
EXTT7=
EXTT8=
EXTT9=
EXTT10=
EXTT11=
EXTT12=
EXTT13=
EXTT14=
PLAYORDER=
